<svg width="32" height="32" viewBox="0 0 32 32" fill="none" xmlns="http://www.w3.org/2000/svg">
<g id="vuesax/linear/attach-square">
<g id="attach-square">
<g id="Group">
<path id="Vector" d="M16.2668 15.7336L14.3868 17.6136C13.3468 18.6536 13.3468 20.347 14.3868 21.387C15.4268 22.427 17.1201 22.427 18.1601 21.387L21.1202 18.427C23.2002 16.347 23.2002 12.9736 21.1202 10.8803C19.0402 8.80031 15.6668 8.80031 13.5735 10.8803L10.3468 14.107C8.56017 15.8936 8.56017 18.787 10.3468 20.5736" stroke="#172B4D" stroke-width="2" stroke-linecap="round" stroke-linejoin="round"/>
</g>
<path id="Vector_2" d="M11.9998 29.3337H19.9998C26.6665 29.3337 29.3332 26.667 29.3332 20.0003V12.0003C29.3332 5.33366 26.6665 2.66699 19.9998 2.66699H11.9998C5.33317 2.66699 2.6665 5.33366 2.6665 12.0003V20.0003C2.6665 26.667 5.33317 29.3337 11.9998 29.3337Z" stroke="#172B4D" stroke-width="2" stroke-linecap="round" stroke-linejoin="round"/>
</g>
</g>
</svg>
